<svg xmlns="http://www.w3.org/2000/svg" viewBox="0 0 1920 1080" preserveAspectRatio="xMidYMid slice">
  <defs>
    <radialGradient id="sun" cx="50%" cy="18%" r="52%">
      <stop offset="0" stop-color="#d58d42" stop-opacity=".52"/>
      <stop offset=".38" stop-color="#5a2b18" stop-opacity=".38"/>
      <stop offset="1" stop-color="#080b10" stop-opacity="0"/>
    </radialGradient>
    <linearGradient id="sky" x1="0" x2="0" y1="0" y2="1">
      <stop offset="0" stop-color="#130b0a"/>
      <stop offset=".36" stop-color="#2b1a15"/>
      <stop offset=".72" stop-color="#111923"/>
      <stop offset="1" stop-color="#05080b"/>
    </linearGradient>
    <radialGradient id="table" cx="50%" cy="61%" r="42%">
      <stop offset="0" stop-color="#7b5734" stop-opacity=".55"/>
      <stop offset=".55" stop-color="#2b2622" stop-opacity=".84"/>
      <stop offset="1" stop-color="#101316" stop-opacity=".96"/>
    </radialGradient>
    <filter id="blur">
      <feGaussianBlur stdDeviation="10"/>
    </filter>
  </defs>
  <rect width="1920" height="1080" fill="url(#sky)"/>
  <rect width="1920" height="1080" fill="url(#sun)"/>
  <path d="M0 380 C280 230 470 320 680 238 C910 150 1040 250 1210 180 C1430 90 1635 170 1920 80 V620 H0Z" fill="#141921" opacity=".68"/>
  <path d="M0 490 C300 360 540 470 790 345 C1040 230 1240 420 1920 245 V720 H0Z" fill="#0c1016" opacity=".78"/>
  <g opacity=".42" fill="#442515">
    <path d="M180 250 h32 l18 245 h-70z"/>
    <path d="M330 230 h28 l28 260 h-74z"/>
    <path d="M1630 240 h32 l-18 260 h70z"/>
    <path d="M1470 220 h28 l-28 270 h74z"/>
  </g>
  <g opacity=".34" fill="#b16b31">
    <path d="M210 260 l210 55 l-205 72z"/>
    <path d="M345 240 l190 50 l-182 66z"/>
    <path d="M1648 250 l-210 55 l205 72z"/>
    <path d="M1484 230 l-190 50 l182 66z"/>
  </g>
  <ellipse cx="960" cy="685" rx="630" ry="270" fill="url(#table)"/>
  <ellipse cx="960" cy="685" rx="520" ry="210" fill="none" stroke="#b2783a" stroke-opacity=".25" stroke-width="4"/>
  <ellipse cx="960" cy="685" rx="380" ry="150" fill="none" stroke="#d49a52" stroke-opacity=".16" stroke-width="2"/>
  <path d="M520 678 C690 595 825 590 960 596 C1110 603 1270 595 1440 676" fill="none" stroke="#e1a65f" stroke-opacity=".18" stroke-width="7" filter="url(#blur)"/>
  <rect width="1920" height="1080" fill="none" stroke="#d99a55" stroke-opacity=".16" stroke-width="3"/>
  <radialGradient id="v" cx="50%" cy="50%" r="72%">
    <stop offset=".42" stop-color="#000" stop-opacity="0"/>
    <stop offset="1" stop-color="#000" stop-opacity=".76"/>
  </radialGradient>
  <rect width="1920" height="1080" fill="url(#v)"/>
</svg>
